<?xml version="1.0" encoding="utf-8"?>
<!-- Generator: Adobe Illustrator 16.0.0, SVG Export Plug-In . SVG Version: 6.00 Build 0)  -->
<!DOCTYPE svg PUBLIC "-//W3C//DTD SVG 1.1//EN" "http://www.w3.org/Graphics/SVG/1.1/DTD/svg11.dtd">
<svg version="1.1" id="Layer_1" xmlns="http://www.w3.org/2000/svg" xmlns:xlink="http://www.w3.org/1999/xlink" x="0px" y="0px"
	 width="781.407px" height="93.639px" viewBox="0 0 781.407 93.639" enable-background="new 0 0 781.407 93.639"
	 xml:space="preserve">
<linearGradient id="SVGID_1_" gradientUnits="userSpaceOnUse" x1="2.441406e-004" y1="46.8196" x2="781.4075" y2="46.8196">
	<stop  offset="0" style="stop-color:#A75729"/>
	<stop  offset="0.5" style="stop-color:#EAA837"/>
	<stop  offset="1" style="stop-color:#A85627"/>
</linearGradient>
<path fill="url(#SVGID_1_)" d="M623.663,45.753c0,0,2.466-0.159,6.777-0.351c4.314-0.156,10.477-0.481,17.871-0.687
	c7.394-0.232,16.02-0.428,25.263-0.556c4.621-0.052,9.397-0.104,14.25-0.157c4.854-0.02,9.781-0.041,14.711-0.063
	c4.931,0.021,9.858,0.041,14.712,0.062c4.853,0.002,9.627,0.107,14.248,0.154c9.243,0.127,17.871,0.321,25.266,0.556
	c7.395,0.202,13.557,0.532,17.869,0.688c4.313,0.19,6.777,0.353,6.777,0.353s-2.465,0.161-6.777,0.353
	c-4.313,0.156-10.476,0.486-17.869,0.688c-7.395,0.233-16.021,0.429-25.266,0.556c-4.621,0.047-9.396,0.152-14.248,0.154
	c-4.854,0.02-9.781,0.041-14.712,0.061c-4.93-0.021-9.857-0.043-14.711-0.063c-4.853-0.053-9.629-0.105-14.25-0.157
	c-9.243-0.128-17.869-0.322-25.263-0.556c-7.396-0.204-13.557-0.529-17.871-0.687C626.129,45.912,623.663,45.753,623.663,45.753z
	 M0,45.753c0,0,2.465-0.159,6.776-0.351c4.314-0.156,10.477-0.481,17.871-0.687c7.395-0.232,16.021-0.428,25.264-0.556
	c4.621-0.052,9.396-0.104,14.25-0.157c4.853-0.02,9.78-0.041,14.711-0.063c4.93,0.021,9.857,0.041,14.712,0.062
	c4.852,0.002,9.627,0.107,14.248,0.154c9.243,0.127,17.871,0.321,25.265,0.556c7.396,0.202,13.557,0.532,17.869,0.688
	c4.313,0.19,6.778,0.353,6.778,0.353s-2.466,0.161-6.778,0.353c-4.313,0.156-10.476,0.486-17.869,0.688
	c-7.394,0.233-16.021,0.429-25.265,0.556c-4.621,0.047-9.396,0.152-14.248,0.154c-4.854,0.02-9.782,0.041-14.712,0.061
	c-4.931-0.021-9.858-0.043-14.711-0.063c-4.854-0.053-9.629-0.105-14.25-0.157c-9.243-0.128-17.869-0.322-25.264-0.556
	c-7.396-0.204-13.557-0.529-17.871-0.687C2.465,45.912,0,45.753,0,45.753z M207.2,64.74l-3.84,1.67
	c-4.044-7.829-6.066-15.379-6.066-22.651c0-9.017,2.894-16.733,8.682-23.153c5.602-6.233,12.578-10.463,20.926-12.689
	c4.119-1.113,8.44-1.67,12.968-1.67c4.526,0,8.645,0.464,12.355,1.392c3.709,0.928,7.16,2.708,10.352,5.343
	c3.451-2.819,8.311-4.23,14.582-4.23l1.113,3.451c-5.974,1.188-9.962,2.56-11.965,4.119c3.896,3.599,6.845,8.302,8.849,14.108
	c2.003,5.807,3.005,11.409,3.005,16.807s-0.315,9.916-0.946,13.553c-0.631,3.636-1.661,7.059-3.089,10.268
	c-1.429,3.21-3.219,5.946-5.371,8.209c-4.564,4.936-10.463,7.402-17.698,7.402s-15.027-1.799-23.375-5.398
	c-1.967,1.484-4.758,2.82-8.376,4.007c-3.618,1.188-7.004,1.781-10.157,1.781c-6.345,0-9.517-2.467-9.517-7.402
	c0-2.894,1.614-5.314,4.842-7.263s7.263-2.922,12.105-2.922s9.619,1.15,14.331,3.45c4.155-5.379,7.42-12.855,9.795-22.429
	c0.964-3.784,2.04-7.624,3.228-11.52c2.746-9.016,7.736-16.733,14.971-23.152c-1.967-1.817-4.555-3.218-7.764-4.202
	c-3.21-0.982-6.336-1.475-9.378-1.475c-7.087,0-13.44,1.383-19.062,4.146c-5.621,2.765-10.121,6.929-13.496,12.495
	c-3.377,5.565-5.065,12.114-5.065,19.646C204.139,51.884,205.159,57.988,207.2,64.74z M223.952,78.654
	c-5.083-2.114-9.823-3.172-14.22-3.172c-4.396,0-6.595,1.354-6.595,4.063c0,2.301,2.04,3.451,6.122,3.451
	c2.3,0,4.814-0.398,7.541-1.197C219.528,81.001,221.911,79.953,223.952,78.654z M271.648,47.432c0-5.417-0.826-10.611-2.477-15.583
	c-1.651-4.971-3.776-8.793-6.373-11.465c-2.226,3.414-4.063,8.553-5.51,15.417c-2.486,12.059-6.66,21.836-12.522,29.33
	c-2.746,3.525-5.992,6.753-9.739,9.684c7.16,3.711,13.264,5.565,18.31,5.565c5.12,0,9.016-1.726,11.688-5.176
	c2.746-3.524,4.544-7.698,5.398-12.522C271.24,57.932,271.648,52.849,271.648,47.432z M291.155,87.392
	c-1.578,0-2.811-0.482-3.701-1.447c-0.891-0.964-1.336-2.29-1.336-3.979c0-1.688,0.436-3.987,1.308-6.9
	c0.871-2.913,1.744-5.557,2.616-7.932c0.871-2.374,1.308-3.96,1.308-4.758s-0.26-1.197-0.779-1.197
	c-1.299,0-3.395,2.561-6.289,7.681l-3.729-2.171c5.454-9.201,10.463-13.802,15.027-13.802c3.117,0,4.675,1.967,4.675,5.899
	c0,1.15-0.371,2.987-1.113,5.51l-4.007,11.465c-0.409,1.076-0.612,2.051-0.612,2.922c0,0.872,0.334,1.308,1.002,1.308
	c1.261,0,3.58-2.337,6.957-7.013l2.337,2.171c-2.004,3.711-4.388,6.679-7.152,8.904C294.902,86.279,292.731,87.392,291.155,87.392z
	 M306.989,36.44c0,1.502-0.501,2.866-1.503,4.09c-1.001,1.225-2.356,1.837-4.063,1.837c-1.707,0-2.987-0.51-3.84-1.531
	c-0.854-1.02-1.28-2.31-1.28-3.868c0-1.558,0.529-2.94,1.586-4.146c1.058-1.206,2.421-1.809,4.091-1.809
	c1.669,0,2.922,0.529,3.756,1.586C306.571,33.657,306.989,34.937,306.989,36.44z M338.712,60.177c-1.41,0-3.08,0.899-5.009,2.699
	c-1.93,1.8-3.804,3.998-5.622,6.595c-2.894,4.156-5.844,8.942-8.849,14.358l-1.502,2.672h-7.848l1.726-5.231
	c3.228-9.646,4.842-15.369,4.842-17.17c0-1.799-0.297-2.699-0.891-2.699c-1.076,0-2.356,1.28-3.84,3.841
	c-0.334,0.594-0.612,1.066-0.835,1.419c-0.223,0.354-0.473,0.779-0.751,1.28s-0.455,0.807-0.529,0.918l-3.729-2.171
	c2.894-4.711,5.546-8.189,7.958-10.435c2.412-2.244,4.878-3.367,7.402-3.367c1.15,0,2.143,0.482,2.978,1.447
	c0.835,0.965,1.252,2.105,1.252,3.423s-0.075,2.485-0.223,3.506c-0.149,1.021-0.315,1.957-0.501,2.811
	c-0.186,0.854-0.445,1.874-0.779,3.061c-0.333,1.188-0.604,2.097-0.807,2.728c-0.205,0.631-0.473,1.484-0.807,2.56
	c-0.334,1.077-0.538,1.707-0.612,1.893c0.668-1.336,1.799-3.302,3.395-5.899c1.595-2.597,2.634-4.229,3.117-4.897
	c0.482-0.668,1.149-1.559,2.003-2.671c0.854-1.113,1.604-1.977,2.254-2.589c0.649-0.611,1.429-1.316,2.338-2.114
	s1.771-1.4,2.588-1.809c2.077-0.965,4.081-1.447,6.011-1.447c1.929,0,3.479,0.566,4.647,1.697c1.169,1.132,1.753,2.449,1.753,3.951
	c0,1.503-0.473,2.82-1.419,3.952s-2.041,1.697-3.284,1.697s-2.217-0.213-2.922-0.64s-1.188-0.882-1.446-1.364
	C339.992,60.845,339.305,60.177,338.712,60.177z M358.636,75.537c0.223,4.267,3.098,6.4,8.627,6.4c2.04,0,4.164-0.585,6.372-1.753
	c2.207-1.169,3.998-2.551,5.371-4.146l2.393,1.559c-3.08,5.157-7.995,8.312-14.748,9.461c-1.484,0.223-2.913,0.334-4.285,0.334
	c-4.007,0-7.347-1.326-10.018-3.979c-2.672-2.652-4.008-5.89-4.008-9.712c0-3.82,1.169-7.354,3.507-10.602
	c2.337-3.247,5.259-5.761,8.766-7.542c3.506-1.78,6.965-2.671,10.379-2.671c3.413,0,6.373,0.779,8.877,2.337
	c2.505,1.559,3.785,3.655,3.841,6.289c0.056,2.636-0.715,4.907-2.311,6.818s-3.617,3.367-6.065,4.368
	c-4.861,1.968-9.629,2.95-14.304,2.95L358.636,75.537z M358.303,72.476c4.118-0.147,7.43-0.807,9.934-1.976
	c2.505-1.168,4.248-2.504,5.231-4.007s1.476-3.079,1.476-4.73c0-1.65-0.428-2.875-1.28-3.674c-0.854-0.797-1.763-1.196-2.728-1.196
	c-2.375,0-4.555,0.826-6.539,2.477c-1.985,1.651-3.498,3.655-4.536,6.011C358.822,67.737,358.303,70.102,358.303,72.476z
	 M416.628,74.981l2.282,1.614c-1.634,3.303-4.146,5.927-7.542,7.875c-3.395,1.948-6.948,2.922-10.657,2.922
	c-3.711,0-6.837-1.132-9.378-3.396c-2.542-2.263-3.813-5.463-3.813-9.6s1.271-7.875,3.813-11.215
	c2.541-3.339,5.667-5.89,9.378-7.652c3.709-1.762,7.457-2.644,11.242-2.644c4.638,0,7.754,1.113,9.35,3.339
	c0.668,0.891,1.002,2.014,1.002,3.367c0,1.355-0.465,2.496-1.392,3.423c-0.928,0.928-2.041,1.392-3.339,1.392
	c-1.3,0-2.394-0.418-3.284-1.252c-0.891-0.835-1.335-1.901-1.335-3.2s0.797-2.485,2.393-3.563c-1.41-0.445-2.709-0.668-3.896-0.668
	c-2.561,0-4.917,0.946-7.068,2.839c-2.152,1.893-3.785,4.184-4.897,6.873c-1.113,2.69-1.67,5.334-1.67,7.931
	c0,2.598,0.621,4.685,1.865,6.262c1.242,1.577,3.032,2.365,5.37,2.365s4.582-0.658,6.734-1.976
	C413.938,78.7,415.552,77.022,416.628,74.981z M432.601,54.111c3.82-11.873,7.717-21.817,11.688-29.831l6.9,0.557
	c-0.408,1.188-1.41,4.044-3.005,8.571c-3.45,9.981-5.677,16.882-6.679,20.704h8.738l-0.891,3.673h-9.017
	c-3.414,10.538-5.12,16.947-5.12,19.229c0,2.282,0.231,3.423,0.696,3.423c0.463,0,0.881-0.092,1.252-0.278
	c1.002-0.557,3.153-3.265,6.456-8.125l2.281,2.059c-2.486,4.527-5.046,7.875-7.68,10.046c-2.635,2.171-4.806,3.256-6.512,3.256
	c-1.707,0-2.997-0.594-3.868-1.781c-0.872-1.187-1.308-2.708-1.308-4.563c0-4.712,1.65-12.467,4.953-23.264h-5.844l0.891-3.673
	H432.601z M459.955,87.392c-1.578,0-2.811-0.482-3.701-1.447c-0.891-0.964-1.336-2.29-1.336-3.979c0-1.688,0.436-3.987,1.308-6.9
	s1.744-5.557,2.616-7.932c0.871-2.374,1.308-3.96,1.308-4.758s-0.26-1.197-0.779-1.197c-1.299,0-3.395,2.561-6.289,7.681
	l-3.729-2.171c5.454-9.201,10.463-13.802,15.026-13.802c3.117,0,4.676,1.967,4.676,5.899c0,1.15-0.372,2.987-1.113,5.51
	l-4.007,11.465c-0.409,1.076-0.612,2.051-0.612,2.922c0,0.872,0.334,1.308,1.001,1.308c1.262,0,3.581-2.337,6.957-7.013l2.338,2.171
	c-2.004,3.711-4.388,6.679-7.151,8.904C463.702,86.279,461.531,87.392,459.955,87.392z M475.788,36.44c0,1.502-0.5,2.866-1.502,4.09
	c-1.002,1.225-2.356,1.837-4.063,1.837s-2.986-0.51-3.84-1.531c-0.854-1.02-1.28-2.31-1.28-3.868c0-1.558,0.529-2.94,1.587-4.146
	c1.057-1.206,2.421-1.809,4.09-1.809c1.67,0,2.922,0.529,3.757,1.586S475.788,34.937,475.788,36.44z M476.902,73.255
	c0-2.782,0.677-5.463,2.031-8.042c1.354-2.578,3.107-4.758,5.26-6.539c4.749-3.858,9.591-5.788,14.525-5.788
	s8.979,1.317,12.133,3.951c3.153,2.635,4.73,5.928,4.73,9.879s-1.085,7.505-3.256,10.658c-2.17,3.153-5.036,5.612-8.599,7.374
	c-3.562,1.762-7.448,2.644-11.659,2.644c-4.212,0-7.792-1.326-10.741-3.979C478.376,80.76,476.902,77.374,476.902,73.255z
	 M495.101,83.941c1.706,0,3.312-0.556,4.813-1.669c1.503-1.113,2.645-2.561,3.423-4.341c1.521-3.414,2.282-6.938,2.282-10.575
	c0-3.636-0.668-6.391-2.004-8.265c-1.335-1.873-3.228-2.811-5.677-2.811c-2.448,0-4.869,1.596-7.263,4.786
	c-2.393,3.191-3.59,7.255-3.59,12.188C487.086,80.379,489.758,83.941,495.101,83.941z M535.228,70.863
	c7.755-11.984,14.711-17.977,20.871-17.977c2.077,0,3.636,0.631,4.675,1.893c1.038,1.262,1.559,2.857,1.559,4.786
	c0,1.93-0.863,5.269-2.588,10.018c-1.726,4.75-2.589,7.689-2.589,8.821s0.278,1.697,0.835,1.697c0.742,0,1.837-0.77,3.284-2.31
	c1.447-1.539,2.727-3.163,3.84-4.87l2.338,2.227c-2.227,4.045-4.667,7.096-7.319,9.155s-4.805,3.089-6.455,3.089
	c-1.651,0-2.941-0.548-3.868-1.642c-0.928-1.095-1.392-2.588-1.392-4.48s0.751-4.981,2.254-9.267s2.254-7.327,2.254-9.127
	s-0.612-2.699-1.836-2.699c-1.411,0-3.08,0.899-5.01,2.699s-3.803,3.998-5.621,6.595c-2.894,4.156-5.844,8.942-8.849,14.358
	l-1.503,2.672h-7.847l1.725-5.231c3.229-9.646,4.842-15.369,4.842-17.17c0-1.799-0.297-2.699-0.89-2.699
	c-1.077,0-2.357,1.28-3.841,3.841c-0.334,0.594-0.612,1.066-0.835,1.419c-0.223,0.354-0.473,0.779-0.751,1.28
	s-0.455,0.807-0.528,0.918l-3.729-2.171c2.895-4.711,5.547-8.189,7.959-10.435c2.411-2.244,4.878-3.367,7.402-3.367
	c1.149,0,2.143,0.482,2.978,1.447c0.834,0.965,1.252,2.134,1.252,3.506c0,1.373-0.111,2.719-0.334,4.035
	c-0.223,1.317-0.455,2.412-0.695,3.283c-0.242,0.872-0.557,1.995-0.946,3.367C535.479,69.898,535.265,70.677,535.228,70.863z
	 M575.606,86.112c-2.431-0.853-4.166-1.864-5.204-3.033s-1.559-2.457-1.559-3.868c0-1.409,0.39-2.578,1.169-3.506
	c0.779-0.927,1.809-1.392,3.089-1.392s2.411,0.381,3.395,1.141c0.983,0.762,1.476,1.837,1.476,3.229s-0.854,2.552-2.561,3.479
	c1.41,1.225,3.562,1.836,6.456,1.836c6.27,0,9.405-1.78,9.405-5.343c0-2.226-1.985-4.007-5.955-5.343
	c-1.633-0.557-3.274-1.149-4.925-1.78c-1.651-0.631-3.089-1.559-4.313-2.783s-1.893-2.708-2.004-4.452
	c0-2.522,0.835-4.656,2.505-6.4c3.153-3.339,7.865-5.009,14.136-5.009c3.08,0,5.807,0.584,8.182,1.753
	c2.374,1.169,3.562,2.681,3.562,4.536s-0.473,3.191-1.419,4.007c-0.946,0.816-2.051,1.225-3.312,1.225
	c-1.262,0-2.328-0.343-3.2-1.029s-1.308-1.643-1.308-2.866c0-1.225,0.724-2.282,2.171-3.173c-0.891-0.63-2.431-0.946-4.62-0.946
	s-4.155,0.325-5.899,0.975s-2.615,1.53-2.615,2.644c0,1.112,0.64,2.041,1.92,2.782c1.28,0.743,2.829,1.429,4.647,2.06
	c1.817,0.631,3.636,1.354,5.454,2.17c1.817,0.817,3.367,1.985,4.646,3.507c1.28,1.521,1.921,3.395,1.921,5.621
	c0,2.226-0.91,4.249-2.728,6.066c-3.45,3.45-8.163,5.176-14.136,5.176C580.827,87.392,578.035,86.965,575.606,86.112z"/>
</svg>
