<?xml version="1.0" encoding="utf-8"?>
<!-- Generator: Adobe Illustrator 16.0.0, SVG Export Plug-In . SVG Version: 6.00 Build 0)  -->
<!DOCTYPE svg PUBLIC "-//W3C//DTD SVG 1.1//EN" "http://www.w3.org/Graphics/SVG/1.1/DTD/svg11.dtd">
<svg version="1.1" id="Layer_1" xmlns="http://www.w3.org/2000/svg" xmlns:xlink="http://www.w3.org/1999/xlink" x="0px" y="0px"
	 width="659.342px" height="93.639px" viewBox="0 0 659.342 93.639" enable-background="new 0 0 659.342 93.639"
	 xml:space="preserve">
<linearGradient id="SVGID_1_" gradientUnits="userSpaceOnUse" x1="1.0002" y1="46.8196" x2="659.342" y2="46.8196">
	<stop  offset="0" style="stop-color:#A75729"/>
	<stop  offset="0.5" style="stop-color:#EAA837"/>
	<stop  offset="1" style="stop-color:#A85627"/>
</linearGradient>
<path fill="url(#SVGID_1_)" d="M501.598,48.441c0,0,2.466-0.16,6.776-0.352c4.314-0.156,10.478-0.48,17.871-0.688
	c7.395-0.231,16.021-0.427,25.264-0.555c4.621-0.052,9.396-0.104,14.25-0.157c4.854-0.021,9.781-0.041,14.711-0.063
	c4.931,0.021,9.857,0.041,14.712,0.063c4.853,0.002,9.627,0.107,14.248,0.154c9.243,0.127,17.871,0.32,25.266,0.555
	c7.396,0.203,13.558,0.533,17.869,0.689c4.313,0.189,6.777,0.352,6.777,0.352s-2.466,0.162-6.777,0.354
	c-4.313,0.156-10.476,0.486-17.869,0.688c-7.395,0.234-16.021,0.43-25.266,0.557c-4.621,0.047-9.396,0.152-14.248,0.154
	c-4.854,0.02-9.781,0.041-14.712,0.061c-4.93-0.021-9.857-0.043-14.711-0.063c-4.854-0.053-9.629-0.105-14.25-0.158
	c-9.243-0.127-17.869-0.322-25.264-0.555c-7.396-0.205-13.557-0.529-17.871-0.688C504.064,48.599,501.598,48.441,501.598,48.441z
	 M1,48.441c0,0,2.465-0.16,6.775-0.352c4.314-0.156,10.478-0.48,17.871-0.688c7.396-0.231,16.021-0.427,25.265-0.555
	c4.621-0.052,9.396-0.104,14.25-0.157c4.853-0.021,9.779-0.041,14.711-0.063c4.93,0.021,9.856,0.041,14.712,0.063
	c4.852,0.002,9.627,0.107,14.248,0.154c9.243,0.127,17.871,0.32,25.265,0.555c7.396,0.203,13.557,0.533,17.869,0.689
	c4.313,0.189,6.778,0.352,6.778,0.352s-2.467,0.162-6.778,0.354c-4.313,0.156-10.477,0.486-17.869,0.688
	c-7.394,0.234-16.021,0.43-25.265,0.557c-4.621,0.047-9.396,0.152-14.248,0.154c-4.854,0.02-9.782,0.041-14.712,0.061
	c-4.932-0.021-9.858-0.043-14.711-0.063c-4.854-0.053-9.629-0.105-14.25-0.158c-9.243-0.127-17.869-0.322-25.265-0.555
	c-7.396-0.205-13.557-0.529-17.871-0.688C3.465,48.599,1,48.441,1,48.441z M258.791,33.264c2.182,0,3.271,0.741,3.271,2.223
	c0,1.482-1.133,2.223-3.396,2.223c-5.929,0-11.518,0.927-16.767,2.779c-5.249,1.854-9.603,4.221-13.061,7.102
	c-3.458,2.883-6.175,6.053-8.151,9.51c-1.976,3.459-2.964,6.854-2.964,10.189c0,5.352,2.243,9.768,6.73,13.244
	c4.486,3.48,11.178,5.221,20.069,5.221c10.168,0,17.784-2.43,22.849-7.287c2.635-2.553,3.951-5.855,3.951-9.912
	c0-4.055-1.338-7.256-4.014-9.604c-2.677-2.346-6.104-3.52-10.281-3.52c-4.18,0-8.315,0.824-12.412,2.471
	c-4.098,1.646-7.339,3.85-9.727,6.607l-3.396-3.025c2.388-3.047,5.929-5.496,10.621-7.35s8.975-2.779,12.845-2.779
	c3.869,0,6.987,0.352,9.354,1.051s4.519,1.729,6.453,3.088c4.158,2.963,6.36,7.533,6.607,13.709
	c-0.165,3.705-1.276,7.039-3.334,10.004c-2.061,2.965-4.776,5.371-8.151,7.225c-6.835,3.789-14.883,5.682-24.146,5.682
	c-9.922,0-18.67-2.305-26.243-6.916c-3.624-2.223-6.526-5.115-8.708-8.676c-2.183-3.561-3.272-7.523-3.272-11.887
	c0-15.48,13.544-25.421,40.633-29.828c-4.568-1.564-7.862-3.645-9.88-6.237s-3.025-5.289-3.025-8.089
	c0-5.022,2.769-9.438,8.306-13.246c5.537-3.807,12.505-5.712,20.903-5.712c7.697,0,14.119,2.059,19.267,6.175
	c3.829,3.047,5.825,7.062,5.99,12.042c0,2.307-0.681,4.045-2.038,5.218c-1.358,1.174-2.985,1.761-4.878,1.761
	c-1.896,0-3.511-0.525-4.849-1.575c-1.339-1.05-2.007-2.274-2.007-3.674s0.247-2.501,0.741-3.305
	c0.493-0.803,1.039-1.398,1.636-1.791c0.598-0.391,1.286-0.688,2.069-0.896c1.151-0.288,2.078-0.432,2.778-0.432
	c-1.318-2.718-3.654-4.889-7.01-6.516c-3.354-1.625-7.256-2.438-11.701-2.438c-4.446,0-8.491,1.266-12.135,3.798
	s-5.466,5.979-5.466,10.343c0,4.693,1.626,8.378,4.879,11.054c1.771,1.482,3.892,2.224,6.36,2.224L258.791,33.264z M298.066,84.642
	c3.499,0,7.04-1.234,10.621-3.705c3.582-2.471,6.442-5.361,8.584-8.676c2.141-3.314,3.211-6.27,3.211-8.861
	c-0.247,0.33-1.143,0.494-2.687,0.494c-1.543,0-2.789-0.504-3.735-1.514c-0.948-1.01-1.421-2.225-1.421-3.645
	s0.535-2.686,1.605-3.797c1.069-1.111,2.553-1.668,4.445-1.668c5.229,0,7.844,2.861,7.844,8.584c0,2.594-0.804,5.557-2.408,8.893
	c-1.605,3.334-3.798,6.566-6.577,9.695c-2.778,3.129-6.36,5.764-10.744,7.904c-4.385,2.141-9.017,3.211-13.895,3.211
	c-4.88,0-7.317-2.367-7.317-7.104c0-2.676,0.771-6.309,2.315-10.898c1.544-4.59,2.314-7.523,2.314-8.799s-0.37-1.914-1.111-1.914
	c-1.11,0-3.313,2.676-6.606,8.025l-4.014-2.283c6.052-10.211,11.608-15.314,16.673-15.314c1.357,0,2.541,0.504,3.551,1.514
	c1.008,1.008,1.513,2.654,1.513,4.939s-0.824,6.494-2.47,12.629c-1.647,6.135-2.471,9.385-2.471,9.756
	C295.286,83.798,296.213,84.642,298.066,84.642z M340.737,78.406c0.247,4.734,3.438,7.102,9.571,7.102
	c2.264,0,4.621-0.648,7.071-1.945c2.448-1.297,4.436-2.83,5.959-4.6l2.655,1.729c-3.418,5.723-8.872,9.223-16.364,10.498
	c-1.647,0.246-3.232,0.371-4.755,0.371c-4.446,0-8.151-1.473-11.115-4.416c-2.965-2.943-4.446-6.535-4.446-10.775
	c0-4.238,1.296-8.162,3.891-11.764c2.594-3.604,5.836-6.393,9.727-8.367c3.891-1.977,7.729-2.965,11.517-2.965
	s7.071,0.865,9.851,2.594c2.778,1.729,4.199,4.057,4.261,6.979c0.063,2.924-0.793,5.443-2.563,7.564
	c-1.771,2.121-4.015,3.736-6.73,4.848c-5.395,2.184-10.684,3.271-15.871,3.271L340.737,78.406z M340.365,75.009
	c4.569-0.164,8.244-0.896,11.022-2.193c2.778-1.295,4.714-2.777,5.805-4.445c1.092-1.668,1.638-3.416,1.638-5.25
	c0-1.83-0.475-3.188-1.421-4.074c-0.947-0.885-1.955-1.328-3.025-1.328c-2.635,0-5.055,0.918-7.256,2.748
	c-2.203,1.834-3.881,4.057-5.033,6.67S340.365,72.374,340.365,75.009z M389.769,73.218c8.604-13.297,16.322-19.947,23.156-19.947
	c2.305,0,4.034,0.701,5.188,2.1c1.152,1.4,1.729,3.172,1.729,5.313s-0.957,5.846-2.871,11.115s-2.871,8.531-2.871,9.787
	c0,1.258,0.31,1.885,0.926,1.885c0.823,0,2.038-0.855,3.645-2.564c1.604-1.707,3.025-3.51,4.261-5.402l2.594,2.471
	c-2.471,4.488-5.178,7.873-8.121,10.158c-2.942,2.283-5.332,3.428-7.161,3.428c-1.833,0-3.265-0.609-4.294-1.822
	c-1.028-1.215-1.543-2.871-1.543-4.971c0-2.102,0.834-5.527,2.501-10.283c1.667-4.754,2.502-8.129,2.502-10.127
	c0-1.996-0.681-2.994-2.038-2.994c-1.565,0-3.417,0.998-5.559,2.994c-2.141,1.998-4.221,4.438-6.235,7.318
	c-3.213,4.609-6.484,9.922-9.819,15.932l-1.667,2.965h-8.707l1.914-5.805c3.582-10.703,5.373-17.055,5.373-19.051
	s-0.33-2.996-0.988-2.996c-1.195,0-2.615,1.422-4.262,4.262c-0.37,0.658-0.679,1.184-0.926,1.574
	c-0.247,0.393-0.525,0.865-0.834,1.42c-0.31,0.557-0.505,0.896-0.587,1.02l-4.138-2.406c3.211-5.23,6.153-9.09,8.831-11.58
	c2.675-2.49,5.412-3.736,8.213-3.736c1.275,0,2.377,0.537,3.304,1.607c0.927,1.068,1.391,2.365,1.391,3.889
	s-0.124,3.018-0.371,4.479s-0.505,2.678-0.771,3.645c-0.269,0.967-0.617,2.213-1.051,3.734
	C390.046,72.148,389.808,73.013,389.769,73.218z M437.195,54.63c4.239-13.174,8.563-24.208,12.967-33.1l7.658,0.618
	c-0.453,1.318-1.564,4.487-3.335,9.51c-3.829,11.075-6.299,18.732-7.41,22.972h9.694l-0.987,4.074h-10.004
	c-3.788,11.693-5.681,18.805-5.681,21.336s0.256,3.799,0.771,3.799s0.978-0.104,1.39-0.311c1.111-0.617,3.499-3.621,7.164-9.016
	l2.53,2.285c-2.758,5.021-5.599,8.736-8.521,11.146c-2.924,2.408-5.332,3.611-7.225,3.611c-1.896,0-3.325-0.658-4.293-1.977
	c-0.968-1.316-1.45-3.004-1.45-5.063c0-5.229,1.831-13.832,5.495-25.814h-6.483l0.988-4.074h6.731V54.63z"/>
</svg>
