<?xml version="1.0" encoding="utf-8"?>
<!-- Generator: Adobe Illustrator 16.0.0, SVG Export Plug-In . SVG Version: 6.00 Build 0)  -->
<!DOCTYPE svg PUBLIC "-//W3C//DTD SVG 1.1//EN" "http://www.w3.org/Graphics/SVG/1.1/DTD/svg11.dtd">
<svg version="1.1" id="Layer_1" xmlns="http://www.w3.org/2000/svg" xmlns:xlink="http://www.w3.org/1999/xlink" x="0px" y="0px"
	 width="659.342px" height="93.639px" viewBox="0 0 659.342 93.639" enable-background="new 0 0 659.342 93.639"
	 xml:space="preserve">
<linearGradient id="SVGID_1_" gradientUnits="userSpaceOnUse" x1="-378.0999" y1="314.72" x2="280.2419" y2="314.72" gradientTransform="matrix(1 0 0 -1 379.1001 361.5396)">
	<stop  offset="0" style="stop-color:#A75729"/>
	<stop  offset="0.1589" style="stop-color:#A0441B"/>
	<stop  offset="0.3559" style="stop-color:#99320E"/>
	<stop  offset="0.5" style="stop-color:#972C0A"/>
	<stop  offset="0.6468" style="stop-color:#99310D"/>
	<stop  offset="0.8204" style="stop-color:#9F3F17"/>
	<stop  offset="1" style="stop-color:#A85627"/>
</linearGradient>
<path fill="url(#SVGID_1_)" d="M501.598,48.441c0,0,2.466-0.16,6.776-0.352c4.313-0.156,10.478-0.48,17.87-0.688
	c7.396-0.23,16.021-0.427,25.265-0.555c4.621-0.052,9.396-0.104,14.25-0.157c4.854-0.021,9.78-0.041,14.711-0.063
	c4.931,0.021,9.856,0.041,14.712,0.063c4.853,0.002,9.627,0.107,14.248,0.154c9.243,0.127,17.871,0.32,25.266,0.555
	c7.396,0.203,13.558,0.533,17.869,0.689c4.313,0.188,6.777,0.352,6.777,0.352s-2.466,0.162-6.777,0.354
	c-4.313,0.155-10.476,0.485-17.869,0.688c-7.395,0.234-16.021,0.431-25.266,0.558c-4.621,0.047-9.396,0.151-14.248,0.153
	c-4.854,0.021-9.781,0.041-14.712,0.062c-4.931-0.021-9.857-0.043-14.711-0.063c-4.854-0.053-9.629-0.104-14.25-0.158
	c-9.243-0.127-17.869-0.321-25.265-0.555c-7.396-0.205-13.557-0.529-17.87-0.688C504.064,48.599,501.598,48.441,501.598,48.441z
	 M1,48.441c0,0,2.465-0.16,6.774-0.352c4.314-0.156,10.479-0.48,17.871-0.688c7.396-0.23,16.021-0.427,25.266-0.555
	c4.62-0.052,9.396-0.104,14.25-0.157c4.853-0.021,9.778-0.041,14.711-0.063c4.93,0.021,9.855,0.041,14.712,0.063
	c4.852,0.002,9.627,0.107,14.248,0.154c9.243,0.127,17.871,0.32,25.265,0.555c7.396,0.203,13.557,0.533,17.869,0.689
	c4.313,0.188,6.778,0.352,6.778,0.352s-2.468,0.162-6.778,0.354c-4.313,0.155-10.478,0.485-17.869,0.688
	c-7.394,0.234-16.021,0.431-25.265,0.558c-4.621,0.047-9.396,0.151-14.248,0.153c-4.854,0.021-9.782,0.041-14.712,0.062
	c-4.933-0.021-9.858-0.043-14.711-0.063c-4.854-0.053-9.63-0.104-14.25-0.158c-9.243-0.127-17.869-0.321-25.266-0.555
	c-7.396-0.205-13.557-0.529-17.871-0.688C3.465,48.599,1,48.441,1,48.441z M258.791,33.264c2.182,0,3.271,0.741,3.271,2.223
	c0,1.482-1.133,2.224-3.396,2.224c-5.93,0-11.519,0.927-16.768,2.778c-5.249,1.854-9.603,4.222-13.061,7.103
	c-3.458,2.883-6.175,6.053-8.151,9.51c-1.976,3.459-2.964,6.854-2.964,10.189c0,5.352,2.243,9.768,6.73,13.244
	c4.485,3.479,11.178,5.221,20.068,5.221c10.168,0,17.784-2.43,22.85-7.287c2.635-2.553,3.95-5.855,3.95-9.912
	c0-4.055-1.338-7.256-4.014-9.604c-2.677-2.347-6.104-3.521-10.281-3.521c-4.18,0-8.314,0.824-12.412,2.471
	s-7.339,3.851-9.727,6.607l-3.396-3.025c2.389-3.047,5.93-5.496,10.621-7.35c4.692-1.854,8.976-2.779,12.846-2.779
	c3.868,0,6.986,0.353,9.354,1.051c2.367,0.699,4.52,1.729,6.453,3.089c4.158,2.963,6.36,7.532,6.607,13.709
	c-0.165,3.705-1.276,7.039-3.334,10.004c-2.062,2.965-4.776,5.371-8.151,7.225c-6.835,3.789-14.883,5.682-24.146,5.682
	c-9.922,0-18.67-2.305-26.242-6.916c-3.624-2.223-6.526-5.114-8.708-8.676c-2.184-3.561-3.272-7.522-3.272-11.887
	c0-15.48,13.544-25.421,40.633-29.828c-4.567-1.563-7.861-3.645-9.88-6.237c-2.018-2.592-3.024-5.289-3.024-8.089
	c0-5.021,2.769-9.438,8.306-13.246c5.537-3.807,12.505-5.712,20.903-5.712c7.696,0,14.118,2.06,19.267,6.175
	c3.829,3.048,5.825,7.063,5.99,12.042c0,2.308-0.682,4.046-2.038,5.219c-1.358,1.174-2.985,1.761-4.878,1.761
	c-1.896,0-3.511-0.525-4.85-1.575s-2.007-2.273-2.007-3.674s0.247-2.501,0.741-3.305c0.493-0.804,1.039-1.398,1.636-1.791
	c0.599-0.392,1.286-0.688,2.069-0.896c1.151-0.288,2.078-0.432,2.778-0.432c-1.318-2.718-3.654-4.889-7.011-6.517
	c-3.354-1.625-7.256-2.438-11.7-2.438c-4.446,0-8.491,1.266-12.136,3.798c-3.644,2.532-5.466,5.979-5.466,10.343
	c0,4.693,1.626,8.378,4.879,11.055c1.771,1.481,3.893,2.224,6.36,2.224L258.791,33.264z M298.066,84.642
	c3.499,0,7.04-1.233,10.621-3.705c3.582-2.471,6.442-5.36,8.584-8.676c2.142-3.314,3.211-6.271,3.211-8.861
	c-0.247,0.33-1.143,0.494-2.687,0.494c-1.543,0-2.789-0.504-3.735-1.514c-0.948-1.01-1.421-2.226-1.421-3.646
	s0.535-2.686,1.605-3.797c1.068-1.11,2.553-1.668,4.444-1.668c5.229,0,7.845,2.861,7.845,8.584c0,2.594-0.805,5.558-2.408,8.894
	c-1.605,3.334-3.798,6.565-6.577,9.694c-2.778,3.129-6.36,5.765-10.744,7.904c-4.385,2.141-9.017,3.211-13.895,3.211
	c-4.881,0-7.317-2.367-7.317-7.104c0-2.677,0.771-6.31,2.315-10.898c1.544-4.59,2.313-7.523,2.313-8.799
	c0-1.276-0.37-1.914-1.111-1.914c-1.109,0-3.313,2.676-6.605,8.025l-4.014-2.283c6.052-10.211,11.607-15.314,16.673-15.314
	c1.356,0,2.541,0.504,3.551,1.515c1.008,1.008,1.513,2.653,1.513,4.938s-0.824,6.494-2.47,12.629
	c-1.647,6.135-2.471,9.385-2.471,9.756C295.286,83.798,296.213,84.642,298.066,84.642z M340.737,78.406
	c0.247,4.734,3.438,7.103,9.571,7.103c2.264,0,4.621-0.648,7.071-1.945c2.448-1.297,4.436-2.83,5.959-4.6l2.655,1.729
	c-3.418,5.724-8.872,9.224-16.364,10.498c-1.647,0.246-3.232,0.371-4.755,0.371c-4.446,0-8.151-1.473-11.115-4.416
	c-2.965-2.942-4.446-6.535-4.446-10.774c0-4.238,1.296-8.162,3.892-11.765c2.594-3.604,5.836-6.393,9.727-8.367
	c3.891-1.977,7.729-2.965,11.517-2.965c3.788,0,7.071,0.865,9.852,2.595c2.778,1.729,4.199,4.057,4.261,6.979
	c0.063,2.924-0.793,5.443-2.563,7.564c-1.771,2.12-4.016,3.735-6.73,4.848c-5.395,2.184-10.684,3.271-15.871,3.271L340.737,78.406z
	 M340.365,75.009c4.569-0.164,8.244-0.896,11.022-2.193c2.778-1.295,4.714-2.776,5.805-4.444c1.093-1.668,1.639-3.416,1.639-5.25
	c0-1.83-0.476-3.188-1.421-4.074c-0.947-0.885-1.955-1.328-3.025-1.328c-2.635,0-5.055,0.918-7.256,2.748
	c-2.203,1.834-3.881,4.057-5.033,6.67S340.365,72.374,340.365,75.009z M389.769,73.218c8.604-13.297,16.322-19.947,23.156-19.947
	c2.305,0,4.034,0.701,5.188,2.101c1.152,1.399,1.729,3.172,1.729,5.313c0,2.142-0.957,5.846-2.871,11.115
	c-1.914,5.269-2.871,8.531-2.871,9.787c0,1.258,0.311,1.885,0.926,1.885c0.823,0,2.038-0.854,3.646-2.564
	c1.604-1.706,3.024-3.51,4.261-5.401l2.594,2.471c-2.471,4.488-5.178,7.873-8.121,10.158c-2.941,2.283-5.332,3.428-7.16,3.428
	c-1.833,0-3.266-0.608-4.295-1.822c-1.027-1.215-1.543-2.87-1.543-4.971c0-2.102,0.834-5.526,2.501-10.283
	c1.667-4.754,2.503-8.129,2.503-10.127c0-1.996-0.682-2.994-2.038-2.994c-1.565,0-3.417,0.998-5.56,2.994
	c-2.141,1.998-4.221,4.438-6.234,7.318c-3.214,4.609-6.484,9.922-9.819,15.932l-1.667,2.965h-8.707l1.914-5.805
	c3.582-10.703,5.373-17.055,5.373-19.051s-0.33-2.996-0.988-2.996c-1.195,0-2.615,1.422-4.262,4.262
	c-0.37,0.658-0.679,1.185-0.926,1.574c-0.247,0.394-0.525,0.865-0.834,1.42c-0.311,0.558-0.506,0.896-0.588,1.021l-4.138-2.406
	c3.211-5.23,6.153-9.09,8.831-11.58c2.675-2.49,5.412-3.736,8.213-3.736c1.275,0,2.377,0.537,3.305,1.607
	c0.927,1.068,1.391,2.365,1.391,3.889c0,1.524-0.124,3.019-0.371,4.479s-0.505,2.678-0.771,3.645
	c-0.269,0.967-0.616,2.213-1.051,3.734C390.046,72.148,389.808,73.013,389.769,73.218z M437.195,54.63
	c4.239-13.174,8.563-24.208,12.967-33.101l7.658,0.618c-0.453,1.318-1.563,4.487-3.335,9.511
	c-3.829,11.074-6.299,18.731-7.41,22.972h9.694l-0.987,4.074h-10.004c-3.788,11.692-5.681,18.805-5.681,21.336
	c0,2.53,0.256,3.799,0.771,3.799c0.516,0,0.979-0.104,1.391-0.312c1.11-0.616,3.499-3.621,7.164-9.016l2.529,2.285
	c-2.758,5.021-5.599,8.736-8.521,11.146c-2.924,2.408-5.332,3.611-7.225,3.611c-1.896,0-3.325-0.658-4.294-1.977
	c-0.968-1.316-1.449-3.005-1.449-5.063c0-5.229,1.831-13.832,5.495-25.813h-6.483l0.988-4.074h6.73L437.195,54.63L437.195,54.63z"/>
</svg>
