<?xml version="1.0" encoding="utf-8"?>
<!-- Generator: Adobe Illustrator 16.0.0, SVG Export Plug-In . SVG Version: 6.00 Build 0)  -->
<!DOCTYPE svg PUBLIC "-//W3C//DTD SVG 1.1//EN" "http://www.w3.org/Graphics/SVG/1.1/DTD/svg11.dtd">
<svg version="1.1" id="Layer_1" xmlns="http://www.w3.org/2000/svg" xmlns:xlink="http://www.w3.org/1999/xlink" x="0px" y="0px"
	 width="364px" height="463px" viewBox="0 0 364 463" enable-background="new 0 0 364 463" xml:space="preserve">
<linearGradient id="SVGID_1_" gradientUnits="userSpaceOnUse" x1="59.6167" y1="454.7139" x2="322.424" y2="-0.4819">
	<stop  offset="0" style="stop-color:#EAA837"/>
	<stop  offset="1" style="stop-color:#A85627"/>
</linearGradient>
<path fill-rule="evenodd" clip-rule="evenodd" fill="url(#SVGID_1_)" d="M192.598,44.313c-24.184,2.919-20.394,36.421-43.583,46.945
	c-7.196,8.604-18.736-2.804-23.479,3.354C92.03,150.577,97.023,260.396,162.42,275.679c47.555,11.121,63.312-25.566,117.365-20.107
	c10.723,2.683,13.479,13.338,23.473,16.756c2.316-10.513,8.938-4.364,16.763-3.351c-12.595-70.891-129.983-1.136-164.303-53.654
	c5.912-10.848,11.993-21.526,23.473-26.82c5.283,33.492,42.441,48.837,77.116,33.529c-24.054-28.063-25.58-94.643-10.054-134.125
	C230.705,70.066,214.908,41.634,192.598,44.313z M172.488,141.554c-3.176-22.324,23.955-36.033,33.522-16.756
	C203.753,139.301,187.574,139.885,172.488,141.554z M163.265,108.865c4.101-11.935,43.69-27.34,43.583-3.354
	C186.277,99.737,176.501,117.943,163.265,108.865z M172.488,37.604c-11.304-22.341,15.755-32.706,40.231-30.171
	C207.253,25.432,192.652,34.31,172.488,37.604z M206.01,34.256c20.392-42.174,54.194,3.442,70.417,23.466
	c-4.952,8.466-12.966,13.868-23.472,16.77C242.4,55.985,226.32,43.009,206.01,34.256z M293.197,57.722
	c-11.784-13.919-24.797-26.614-33.54-43.583c32.77,3.007,51.667,19.868,67.065,40.235C324.304,61.931,299.21,46.566,293.197,57.722z
	 M353.547,17.486c8.628,15.662-2.264,27.925-10.055,36.887C319.257,41.86,305.791,1.378,353.547,17.486z M28.302,134.852
	c0-33.533,0-67.063,0-100.596c37.62-5.966,92.633-25.972,114.004,6.709C120.799,77.586,94.571,109.474,92.01,165.03
	c-14.04-0.497-1.337-27.732-13.412-30.178C54.963,134.26,48.119,137.294,28.302,134.852z M155.717,47.671
	c5.419-0.949,5.777,3.162,10.061,3.348c-6.607,12.388-11.101,26.908-26.823,30.185C137.819,63.31,152.441,61.15,155.717,47.671z
	 M346.851,218.68c-27.675-0.273-58.451,2.564-77.133-6.703c-42.763-50.356-14.067-177.58,63.722-140.841
	C383.634,94.853,333.857,168.215,346.851,218.68z M58.477,185.154c-11.433-2.426-7.547-32.773-3.358-40.235
	C66.551,147.331,62.666,177.675,58.477,185.154z M68.531,144.919c17.756-1.01,8.939,30.982,6.709,40.235
	C62.686,182.049,70.869,158.223,68.531,144.919z M41.714,185.154c-10.925-1.146-7.703-27.52-3.351-33.533
	C51.241,150.79,44.761,180.414,41.714,185.154z M18.235,154.969c3.351,0,6.702,0,10.067,0c0,10.061,0,20.118,0,30.185
	C12.755,187.272,19.809,166.817,18.235,154.969z M24.937,198.563c15.892,2.473,23.054-3.78,36.891-3.354
	c-5.594,11.179-23.871,9.662-20.114,30.185c17.574-10.371,35.431-20.458,40.229-43.604c3.357,0,6.709,0,10.067,0
	c-1.162,17.858-5.554,32.466-6.709,50.307c-13.702,8.648-33.316,11.392-56.998,10.054C21.694,233.103,26.302,212.846,24.937,198.563
	z M88.652,248.855c-0.007-11.179,10.912-11.442,10.061-23.463c6.878,11.919,24.452,27.922,16.77,43.584
	C101.354,267.449,100.043,253.125,88.652,248.855z M343.492,279.037c-13.709-13.122-18.533-35.128-30.182-50.296
	c15.581-3.291,20.257,4.344,30.182,6.706C348.263,246.666,348.263,267.814,343.492,279.037z M38.363,359.515
	C21.505,342.623,1.6,311.597,8.181,282.395c14.756-65.579,134.361-21.08,90.531,63.701
	C72.679,344.663,50.355,346.913,38.363,359.515z M128.887,268.977c17.006,14.675,57.126,29.147,83.832,13.418
	c-4.926,28.054-25.664,85.174-60.352,83.822C115.583,364.791,107.287,303.151,128.887,268.977z M283.137,275.679
	c-5.041,20.094-21.479,41.472-10.068,60.363c-20.925,23.242-54.484,21.135-83.818,30.175c13.854-23.04,34.422-68.39,53.65-97.24
	C258.218,269.308,276.913,266.26,283.137,275.679z M336.79,305.86c-15.655,0-31.296,0-46.944,0
	c-3.757-20.52,13.966-24.587,19.553-35.763C320.493,278.003,334.926,288.732,336.79,305.86z M356.904,305.86
	c-3.357,0-6.702,0-10.054,0c0-4.479,0-8.939,0-13.405C355.682,291.448,357.851,297.097,356.904,305.86z M306.615,312.569
	c10.195,0.264,7.857,21.919,3.345,26.824C299.75,339.123,302.102,317.468,306.615,312.569z M283.137,315.921
	c15.195-1.581,9.147,15.682,6.709,23.473C278.265,340.487,277.575,321.88,283.137,315.921z M323.371,339.394
	c0-7.824,0-15.648,0-23.473C337.723,312.002,337.723,343.313,323.371,339.394z M343.492,315.921
	c12.683-2.203,6.291,23.492,3.358,26.824C337.601,338.38,340.142,324.624,343.492,315.921z M118.833,362.866
	c-7.79-2.271-8.973-11.148-16.77-13.412C107.415,334.326,123.57,347.778,118.833,362.866z M353.547,419.864
	c-16.541,36.33-71.944,38.229-113.998,23.486c5.636-21.095,4.777-53.215-3.357-70.432
	C271.23,338.373,373.525,335.097,353.547,419.864z M108.773,366.217c-16.648,8.655-56.897,0.027-73.769,16.771
	C37.363,353.974,89.969,349.008,108.773,366.217z M206.01,450.053c0.547-20.757,13.607-57.296-6.703-77.134
	C234.752,353.906,245.211,452.903,206.01,450.053z M135.596,453.403c6.453-7.614,7.683-10.026-3.351-13.404
	c1.466-4.135,4.29-6.898,10.061-6.717c-0.338-8.594-12.493-5.391-16.771-10.066c7.514-8.243,14.061-11.129,0-16.757
	c-2.993-10.831,10.939-4.716,13.419-10.067c-4.338-6.838-16.256-6.094-13.419-20.114c10.398-0.331,18.595,1.521,23.479,6.71
	C218.462,351.096,209.239,474.971,135.596,453.403z M105.421,443.351c-12.412,2.344-5.783-14.345-13.412-16.771
	c-14.115-5.175-0.534,17.351-10.067,16.771c-11.264,3.438-5.217-10.433-6.703-16.771c-10.77-0.723-8.162,11.959-13.412,16.771
	c-7.405-0.426-1.419-14.229-3.351-20.135c-14.196-3-3.419,18.945-16.763,16.783c-5.662-9.121,5.317-15.716-6.709-20.135
	c-6.966,0.865-0.919,14.736-6.702,16.77C4.634,369.872,142.758,355.771,105.421,443.351z"/>
</svg>
