<?xml version="1.0" encoding="utf-8"?>
<!-- Generator: Adobe Illustrator 16.0.0, SVG Export Plug-In . SVG Version: 6.00 Build 0)  -->
<!DOCTYPE svg PUBLIC "-//W3C//DTD SVG 1.1//EN" "http://www.w3.org/Graphics/SVG/1.1/DTD/svg11.dtd">
<svg version="1.1" id="Layer_1" xmlns="http://www.w3.org/2000/svg" xmlns:xlink="http://www.w3.org/1999/xlink" x="0px" y="0px"
	 width="659.342px" height="93.639px" viewBox="0 0 659.342 93.639" enable-background="new 0 0 659.342 93.639"
	 xml:space="preserve">
<linearGradient id="SVGID_1_" gradientUnits="userSpaceOnUse" x1="-379.0999" y1="310.0276" x2="282.3074" y2="310.0276" gradientTransform="matrix(1 0 0 -1 379.1001 361.5396)">
	<stop  offset="0" style="stop-color:#A75729"/>
	<stop  offset="0.1589" style="stop-color:#A0441B"/>
	<stop  offset="0.3559" style="stop-color:#99320E"/>
	<stop  offset="0.5" style="stop-color:#972C0A"/>
	<stop  offset="0.6468" style="stop-color:#99310D"/>
	<stop  offset="0.8204" style="stop-color:#9F3F17"/>
	<stop  offset="1" style="stop-color:#A85627"/>
</linearGradient>
<path fill="url(#SVGID_1_)" d="M229.591,9.384c13.754,0,20.63,8.09,20.63,24.271c0,12.29-4.064,28.741-12.192,49.352
	c11.21-6.01,20.031-12.982,26.467-20.92c5.971-7.396,10.785-16.16,14.445-26.293c-3.506-1.733-6.434-3.978-8.782-6.731
	c-2.352-2.754-3.525-5.711-3.525-8.87c0-3.158,0.963-5.75,2.89-7.771c1.927-2.022,4.354-3.034,7.281-3.034s5.22,1.05,6.877,3.149
	c1.655,2.101,2.484,5.019,2.484,8.755s-0.713,8.09-2.139,13.06c2.773,1.426,5.701,2.466,8.783,3.12l-1.04,2.717
	c-4.431-1.117-7.319-1.945-8.668-2.485c-3.813,11.52-10.314,21.969-19.503,31.349c-9.188,9.383-20.948,17.27-35.279,23.664h-4.737
	c2.465-4.814,5.085-11.808,7.858-20.978c5.394-17.644,8.091-31.396,8.091-41.26c0-11.749-3.546-17.624-10.634-17.624
	c-3.158,0-6.01,0.8-8.552,2.397c-2.543,1.6-4.604,3.632-6.184,6.097c-1.58,2.466-2.891,5.298-3.931,8.495
	c-1.927,5.701-2.89,11.635-2.89,17.798c0,5.239,0.578,9.786,1.734,13.638c2.08,6.935,5.181,11.771,9.304,14.504l-2.717,2.255
	c-4.083-3.429-7.078-7.955-8.985-13.58c-1.907-5.624-2.86-10.786-2.86-15.486s0.289-8.726,0.866-12.078
	c0.578-3.352,1.532-6.693,2.861-10.025s2.956-6.278,4.883-8.842c1.926-2.563,4.372-4.643,7.339-6.24
	C222.733,10.184,226.009,9.384,229.591,9.384z M274.549,16.521c-1.002,1.061-1.502,2.505-1.502,4.334
	c0,1.83,0.664,3.776,1.993,5.837c1.329,2.062,3.033,3.862,5.113,5.402c1.271-4.584,1.907-8.07,1.907-10.459
	c0-4.469-1.311-6.703-3.93-6.703C276.745,14.932,275.551,15.461,274.549,16.521z M286.742,81.33c0.229,4.43,3.216,6.645,8.955,6.645
	c2.119,0,4.324-0.606,6.617-1.82c2.291-1.213,4.15-2.647,5.576-4.305l2.484,1.617c-3.197,5.354-8.304,8.631-15.313,9.824
	c-1.541,0.229-3.024,0.348-4.45,0.348c-4.159,0-7.628-1.377-10.4-4.133c-2.773-2.754-4.16-6.115-4.16-10.084
	c0-3.967,1.213-7.637,3.641-11.008s5.46-5.981,9.102-7.83c3.641-1.851,7.232-2.774,10.775-2.774c3.545,0,6.617,0.811,9.22,2.428
	c2.6,1.618,3.928,3.795,3.985,6.529c0.06,2.737-0.742,5.097-2.397,7.079c-1.656,1.984-3.756,3.496-6.299,4.537
	c-5.048,2.041-9.996,3.063-14.852,3.063L286.742,81.33z M286.396,78.15c4.275-0.151,7.715-0.838,10.314-2.051
	c2.599-1.213,4.41-2.6,5.432-4.16c1.021-1.561,1.531-3.198,1.531-4.913c0-1.713-0.443-2.983-1.328-3.813
	c-0.887-0.828-1.83-1.242-2.832-1.242c-2.467,0-4.73,0.857-6.79,2.571c-2.062,1.715-3.632,3.795-4.71,6.24
	C286.935,73.23,286.396,75.686,286.396,78.15z M332.624,76.475c8.051-12.441,15.272-18.665,21.67-18.665
	c2.156,0,3.774,0.656,4.854,1.965c1.078,1.312,1.619,2.969,1.619,4.971c0,2.004-0.896,5.471-2.688,10.401
	c-1.792,4.932-2.688,7.984-2.688,9.158c0,1.176,0.289,1.764,0.867,1.764c0.77,0,1.906-0.799,3.408-2.397
	c1.504-1.599,2.832-3.283,3.987-5.058l2.429,2.313c-2.313,4.199-4.847,7.367-7.601,9.506c-2.756,2.137-4.989,3.207-6.703,3.207
	c-1.715,0-3.055-0.57-4.016-1.705c-0.965-1.137-1.445-2.688-1.445-4.652c0-1.964,0.779-5.172,2.341-9.62
	c1.561-4.449,2.34-7.607,2.34-9.479c0-1.868-0.636-2.803-1.906-2.803c-1.465,0-3.197,0.935-5.201,2.803
	c-2.004,1.87-3.949,4.151-5.836,6.849c-3.006,4.314-6.068,9.283-9.187,14.908l-1.562,2.773h-8.147l1.79-5.433
	c3.353-10.016,5.027-15.956,5.027-17.825s-0.309-2.805-0.925-2.805c-1.117,0-2.446,1.329-3.987,3.987
	c-0.347,0.617-0.635,1.107-0.866,1.475c-0.23,0.365-0.49,0.81-0.779,1.328c-0.289,0.52-0.474,0.838-0.549,0.953l-3.872-2.254
	c3.005-4.892,5.759-8.503,8.264-10.835c2.504-2.33,5.065-3.496,7.687-3.496c1.192,0,2.225,0.502,3.092,1.503
	c0.866,1.002,1.299,2.216,1.299,3.642s-0.115,2.821-0.346,4.188c-0.231,1.367-0.474,2.506-0.724,3.41s-0.578,2.07-0.981,3.496
	C332.884,75.475,332.661,76.283,332.624,76.475z M414.796,59.081c-5.162,13.753-7.742,22.095-7.742,25.021
	c0,1.232,0.307,1.851,0.924,1.851c1.695,0,4.16-2.466,7.396-7.398l2.483,2.371c-2.041,3.66-4.459,6.693-7.252,9.1
	c-2.793,2.408-5.057,3.613-6.789,3.613c-3.584,0-5.375-1.811-5.375-5.434c0-2.812,0.654-6.24,1.965-10.285
	c1.312-4.045,1.966-6.086,1.966-6.125c-0.193,0.346-0.654,1.146-1.388,2.397c-0.732,1.252-1.271,2.187-1.616,2.804
	c-0.349,0.614-0.916,1.551-1.705,2.803c-0.791,1.252-1.445,2.234-1.966,2.947c-0.52,0.713-1.213,1.627-2.079,2.743
	c-0.867,1.117-1.64,2.005-2.313,2.658c-0.674,0.656-1.473,1.377-2.398,2.166c-0.924,0.791-1.811,1.398-2.657,1.82
	c-1.927,1.002-3.813,1.504-5.662,1.504c-4.586,0-6.877-2.523-6.877-7.57c0-2.313,0.828-5.903,2.483-10.776
	c1.656-4.873,2.486-7.744,2.486-8.611c0-0.866-0.271-1.3-0.811-1.3c-1.541,0-3.679,2.447-6.414,7.339l-3.757-2.254
	c5.277-8.438,10.363-12.655,15.257-12.655c1.616,0,2.907,0.454,3.871,1.358c0.963,0.904,1.416,2.293,1.358,4.161
	c-0.059,1.867-1.004,5.199-2.832,9.997c-1.83,4.797-2.746,8.465-2.746,11.008c0,1.387,0.638,2.08,1.908,2.08
	c1.463,0,3.207-0.935,5.229-2.804c2.022-1.866,3.979-4.149,5.864-6.848c3.006-4.236,6.127-9.207,9.363-14.908l1.559-2.773H414.796z
	 M431.554,81.33c0.231,4.43,3.217,6.645,8.957,6.645c2.119,0,4.324-0.606,6.617-1.82c2.291-1.213,4.149-2.647,5.575-4.305
	l2.484,1.617c-3.197,5.354-8.303,8.631-15.313,9.824c-1.541,0.229-3.024,0.348-4.448,0.348c-4.162,0-7.629-1.377-10.402-4.133
	c-2.772-2.754-4.16-6.115-4.16-10.084c0-3.967,1.213-7.637,3.642-11.008c2.426-3.371,5.461-5.981,9.102-7.83
	c3.641-1.851,7.232-2.774,10.775-2.774c3.545,0,6.616,0.811,9.219,2.428c2.6,1.618,3.928,3.795,3.986,6.529
	c0.059,2.737-0.742,5.097-2.398,7.079c-1.656,1.984-3.756,3.496-6.299,4.537c-5.047,2.041-9.996,3.063-14.853,3.063L431.554,81.33z
	 M431.208,78.15c4.274-0.151,7.715-0.838,10.313-2.051s4.41-2.6,5.432-4.16c1.021-1.561,1.531-3.198,1.531-4.913
	c0-1.713-0.442-2.983-1.328-3.813c-0.887-0.828-1.83-1.242-2.832-1.242c-2.467,0-4.729,0.857-6.791,2.571
	c-2.061,1.715-3.631,3.795-4.709,6.24C431.746,73.23,431.208,75.686,431.208,78.15z M503.663,51.512c0,0,2.466-0.159,6.777-0.351
	c4.314-0.156,10.477-0.481,17.871-0.687c7.394-0.232,16.02-0.428,25.263-0.556c4.621-0.052,9.397-0.104,14.25-0.157
	c4.854-0.02,9.781-0.041,14.711-0.063c4.931,0.021,9.858,0.041,14.712,0.062c4.853,0.002,9.627,0.107,14.248,0.154
	c9.243,0.127,17.871,0.321,25.266,0.556c7.395,0.202,13.557,0.532,17.869,0.688c4.313,0.19,6.777,0.353,6.777,0.353
	s-2.465,0.161-6.777,0.353c-4.313,0.156-10.476,0.486-17.869,0.688c-7.395,0.233-16.021,0.429-25.266,0.556
	c-4.621,0.047-9.396,0.152-14.248,0.154c-4.854,0.02-9.781,0.041-14.712,0.061c-4.93-0.021-9.857-0.043-14.711-0.063
	c-4.853-0.053-9.629-0.105-14.25-0.157c-9.243-0.128-17.869-0.322-25.263-0.556c-7.396-0.204-13.557-0.529-17.871-0.687
	C506.129,51.671,503.663,51.512,503.663,51.512z M0,51.512c0,0,2.465-0.159,6.776-0.351c4.314-0.156,10.477-0.481,17.871-0.687
	c7.395-0.232,16.021-0.428,25.264-0.556c4.621-0.052,9.396-0.104,14.25-0.157c4.853-0.02,9.78-0.041,14.711-0.063
	c4.93,0.021,9.857,0.041,14.712,0.062c4.852,0.002,9.627,0.107,14.248,0.154c9.243,0.127,17.871,0.321,25.265,0.556
	c7.396,0.202,13.557,0.532,17.869,0.688c4.313,0.19,6.778,0.353,6.778,0.353s-2.466,0.161-6.778,0.353
	c-4.313,0.156-10.476,0.486-17.869,0.688c-7.394,0.233-16.021,0.429-25.265,0.556c-4.621,0.047-9.396,0.152-14.248,0.154
	c-4.854,0.02-9.782,0.041-14.712,0.061c-4.931-0.021-9.858-0.043-14.711-0.063c-4.854-0.053-9.629-0.105-14.25-0.157
	c-9.243-0.128-17.869-0.322-25.264-0.556c-7.396-0.204-13.557-0.529-17.871-0.687C2.465,51.671,0,51.512,0,51.512z"/>
</svg>
