<?xml version="1.0" encoding="utf-8"?>
<!-- Generator: Adobe Illustrator 16.0.0, SVG Export Plug-In . SVG Version: 6.00 Build 0)  -->
<!DOCTYPE svg PUBLIC "-//W3C//DTD SVG 1.1//EN" "http://www.w3.org/Graphics/SVG/1.1/DTD/svg11.dtd">
<svg version="1.1" id="Layer_1" xmlns="http://www.w3.org/2000/svg" xmlns:xlink="http://www.w3.org/1999/xlink" x="0px" y="0px"
	 width="659.342px" height="93.639px" viewBox="0 0 659.342 93.639" enable-background="new 0 0 659.342 93.639"
	 xml:space="preserve">
<linearGradient id="SVGID_1_" gradientUnits="userSpaceOnUse" x1="0" y1="51.5117" x2="661.4082" y2="51.5117">
	<stop  offset="0" style="stop-color:#A75729"/>
	<stop  offset="0.5" style="stop-color:#EAA837"/>
	<stop  offset="1" style="stop-color:#A85627"/>
</linearGradient>
<path fill="url(#SVGID_1_)" d="M229.591,9.384c13.754,0,20.63,8.09,20.63,24.271c0,12.29-4.064,28.741-12.192,49.351
	c11.21-6.01,20.031-12.982,26.466-20.92c5.971-7.396,10.786-16.16,14.446-26.293c-3.506-1.733-6.434-3.977-8.783-6.731
	c-2.351-2.754-3.525-5.711-3.525-8.87s0.963-5.75,2.89-7.772c1.926-2.022,4.354-3.034,7.281-3.034c2.927,0,5.22,1.05,6.877,3.149
	c1.655,2.101,2.484,5.019,2.484,8.755c0,3.737-0.713,8.09-2.138,13.06c2.773,1.426,5.701,2.466,8.783,3.12l-1.04,2.717
	c-4.431-1.117-7.32-1.946-8.668-2.486c-3.814,11.52-10.315,21.969-19.503,31.349c-9.188,9.383-20.948,17.27-35.279,23.664h-4.738
	c2.465-4.814,5.085-11.807,7.859-20.977c5.393-17.644,8.09-31.396,8.09-41.26c0-11.749-3.545-17.624-10.633-17.624
	c-3.159,0-6.01,0.8-8.552,2.397c-2.543,1.6-4.604,3.632-6.184,6.097c-1.58,2.466-2.89,5.298-3.93,8.495
	c-1.927,5.701-2.89,11.635-2.89,17.798c0,5.239,0.578,9.786,1.734,13.638c2.08,6.934,5.181,11.77,9.304,14.504l-2.717,2.254
	c-4.083-3.428-7.078-7.955-8.985-13.58c-1.907-5.624-2.86-10.786-2.86-15.486s0.289-8.726,0.866-12.078
	c0.578-3.352,1.532-6.693,2.861-10.026c1.329-3.332,2.956-6.278,4.883-8.841c1.926-2.563,4.372-4.643,7.339-6.241
	C222.733,10.184,226.009,9.384,229.591,9.384z M274.549,16.521c-1.002,1.06-1.502,2.505-1.502,4.334c0,1.83,0.664,3.776,1.993,5.837
	s3.034,3.862,5.114,5.402c1.271-4.584,1.907-8.07,1.907-10.459c0-4.469-1.311-6.703-3.93-6.703
	C276.745,14.932,275.551,15.461,274.549,16.521z M286.742,81.33c0.23,4.43,3.216,6.645,8.956,6.645c2.119,0,4.324-0.607,6.617-1.82
	c2.291-1.213,4.15-2.648,5.576-4.305l2.484,1.617c-3.197,5.355-8.303,8.631-15.313,9.824c-1.541,0.23-3.025,0.348-4.45,0.348
	c-4.16,0-7.628-1.377-10.401-4.133c-2.773-2.754-4.16-6.115-4.16-10.084c0-3.967,1.213-7.637,3.641-11.008
	c2.427-3.371,5.46-5.981,9.101-7.83c3.641-1.85,7.233-2.774,10.776-2.774c3.545,0,6.617,0.81,9.219,2.428
	c2.6,1.618,3.928,3.795,3.986,6.529c0.059,2.737-0.742,5.097-2.398,7.079c-1.656,1.984-3.756,3.496-6.299,4.537
	c-5.047,2.041-9.996,3.063-14.851,3.063L286.742,81.33z M286.396,78.15c4.275-0.152,7.715-0.838,10.314-2.051s4.41-2.6,5.432-4.16
	c1.02-1.561,1.531-3.198,1.531-4.913c0-1.713-0.443-2.984-1.328-3.813c-0.887-0.828-1.83-1.242-2.832-1.242
	c-2.467,0-4.73,0.857-6.79,2.571c-2.062,1.715-3.632,3.795-4.71,6.241C286.935,73.23,286.396,75.686,286.396,78.15z M332.624,76.475
	c8.051-12.442,15.273-18.665,21.67-18.665c2.156,0,3.775,0.656,4.854,1.965c1.078,1.311,1.619,2.968,1.619,4.97
	c0,2.004-0.896,5.471-2.688,10.402s-2.688,7.984-2.688,9.158c0,1.176,0.289,1.764,0.867,1.764c0.77,0,1.906-0.799,3.408-2.398
	c1.504-1.598,2.832-3.283,3.988-5.057l2.428,2.313c-2.313,4.199-4.846,7.367-7.6,9.506c-2.756,2.137-4.99,3.207-6.703,3.207
	c-1.715,0-3.055-0.57-4.016-1.705c-0.965-1.137-1.445-2.688-1.445-4.652s0.779-5.172,2.34-9.621s2.34-7.607,2.34-9.478
	c0-1.868-0.635-2.803-1.906-2.803c-1.465,0-3.197,0.935-5.201,2.803c-2.004,1.87-3.949,4.151-5.836,6.849
	c-3.006,4.314-6.068,9.283-9.187,14.908l-1.561,2.773h-8.148l1.791-5.432c3.352-10.016,5.027-15.957,5.027-17.826
	s-0.309-2.804-0.925-2.804c-1.117,0-2.446,1.329-3.987,3.987c-0.347,0.617-0.635,1.107-0.866,1.475
	c-0.231,0.365-0.491,0.809-0.78,1.328s-0.473,0.838-0.549,0.953l-3.872-2.254c3.005-4.892,5.759-8.503,8.264-10.835
	c2.504-2.33,5.065-3.496,7.687-3.496c1.192,0,2.224,0.502,3.091,1.503c0.867,1.002,1.299,2.216,1.299,3.641
	c0,1.426-0.115,2.822-0.346,4.189s-0.473,2.506-0.723,3.41s-0.578,2.07-0.982,3.496S332.661,76.283,332.624,76.475z M414.796,59.081
	c-5.162,13.753-7.742,22.095-7.742,25.022c0,1.232,0.307,1.85,0.924,1.85c1.695,0,4.16-2.465,7.396-7.398l2.484,2.371
	c-2.041,3.66-4.459,6.693-7.252,9.1c-2.793,2.408-5.057,3.613-6.789,3.613c-3.584,0-5.375-1.811-5.375-5.434
	c0-2.811,0.654-6.24,1.965-10.285s1.965-6.086,1.965-6.125c-0.193,0.346-0.654,1.146-1.387,2.398s-1.271,2.186-1.617,2.803
	c-0.348,0.615-0.916,1.551-1.705,2.803c-0.791,1.252-1.445,2.234-1.965,2.947s-1.213,1.627-2.08,2.744s-1.639,2.004-2.313,2.658
	c-0.674,0.656-1.473,1.377-2.398,2.166c-0.924,0.791-1.811,1.398-2.658,1.82c-1.926,1.002-3.813,1.504-5.662,1.504
	c-4.586,0-6.877-2.523-6.877-7.57c0-2.313,0.828-5.904,2.484-10.777s2.486-7.744,2.486-8.611c0-0.866-0.271-1.3-0.811-1.3
	c-1.541,0-3.678,2.447-6.414,7.339l-3.756-2.254c5.277-8.437,10.363-12.655,15.256-12.655c1.617,0,2.908,0.454,3.871,1.358
	c0.963,0.905,1.416,2.293,1.359,4.161c-0.059,1.868-1.004,5.2-2.832,9.997c-1.83,4.797-2.746,8.465-2.746,11.008
	c0,1.387,0.637,2.08,1.908,2.08c1.463,0,3.207-0.934,5.229-2.803c2.023-1.867,3.979-4.15,5.865-6.848
	c3.006-4.236,6.127-9.207,9.363-14.908l1.559-2.774H414.796z M431.554,81.33c0.232,4.43,3.217,6.645,8.957,6.645
	c2.119,0,4.324-0.607,6.617-1.82c2.291-1.213,4.15-2.648,5.576-4.305l2.484,1.617c-3.197,5.355-8.303,8.631-15.313,9.824
	c-1.541,0.23-3.025,0.348-4.449,0.348c-4.162,0-7.629-1.377-10.402-4.133c-2.773-2.754-4.16-6.115-4.16-10.084
	c0-3.967,1.213-7.637,3.641-11.008c2.426-3.371,5.461-5.981,9.102-7.83c3.641-1.85,7.232-2.774,10.775-2.774
	c3.545,0,6.617,0.81,9.219,2.428c2.6,1.618,3.928,3.795,3.986,6.529c0.059,2.737-0.742,5.097-2.398,7.079
	c-1.656,1.984-3.756,3.496-6.299,4.537c-5.047,2.041-9.996,3.063-14.852,3.063L431.554,81.33z M431.208,78.15
	c4.275-0.152,7.715-0.838,10.314-2.051s4.41-2.6,5.432-4.16c1.02-1.561,1.531-3.198,1.531-4.913c0-1.713-0.443-2.984-1.328-3.813
	c-0.887-0.828-1.83-1.242-2.832-1.242c-2.467,0-4.73,0.857-6.791,2.571c-2.061,1.715-3.631,3.795-4.709,6.241
	C431.747,73.23,431.208,75.686,431.208,78.15z M503.664,51.512c0,0,2.465-0.159,6.777-0.351c4.314-0.156,10.476-0.481,17.871-0.686
	c7.394-0.233,16.02-0.428,25.263-0.556c4.621-0.052,9.397-0.104,14.25-0.157c4.853-0.02,9.781-0.041,14.711-0.063
	c4.93,0.02,9.858,0.041,14.712,0.061c4.852,0.002,9.627,0.107,14.248,0.154c9.243,0.127,17.871,0.322,25.265,0.556
	c7.395,0.202,13.557,0.532,17.869,0.688c4.313,0.191,6.778,0.353,6.778,0.353s-2.465,0.161-6.778,0.353
	c-4.313,0.156-10.475,0.486-17.869,0.688c-7.394,0.233-16.021,0.429-25.265,0.556c-4.621,0.047-9.396,0.152-14.248,0.154
	c-4.854,0.02-9.782,0.041-14.712,0.061c-4.93-0.021-9.858-0.043-14.711-0.063c-4.853-0.053-9.629-0.105-14.25-0.157
	c-9.243-0.128-17.869-0.322-25.263-0.556c-7.396-0.204-13.557-0.529-17.871-0.686C506.129,51.671,503.664,51.512,503.664,51.512z
	 M0,51.512c0,0,2.465-0.159,6.777-0.351c4.314-0.156,10.476-0.481,17.871-0.686c7.394-0.233,16.02-0.428,25.263-0.556
	c4.621-0.052,9.397-0.104,14.25-0.157c4.853-0.02,9.781-0.041,14.711-0.063c4.93,0.02,9.858,0.041,14.712,0.061
	c4.852,0.002,9.627,0.107,14.248,0.154c9.243,0.127,17.871,0.322,25.265,0.556c7.395,0.202,13.557,0.532,17.869,0.688
	c4.313,0.191,6.778,0.353,6.778,0.353s-2.465,0.161-6.778,0.353c-4.313,0.156-10.475,0.486-17.869,0.688
	c-7.394,0.233-16.021,0.429-25.265,0.556c-4.621,0.047-9.396,0.152-14.248,0.154c-4.854,0.02-9.782,0.041-14.712,0.061
	c-4.93-0.021-9.858-0.043-14.711-0.063c-4.853-0.053-9.629-0.105-14.25-0.157c-9.243-0.128-17.869-0.322-25.263-0.556
	c-7.396-0.204-13.557-0.529-17.871-0.686C2.465,51.671,0,51.512,0,51.512z"/>
</svg>
